HIERARCHY
ROOT Hips
{
	OFFSET -3.958830 18.904000 13.208200
	CHANNELS 6 Xposition Yposition Zposition Zrotation Yrotation Xrotation 
	JOINT LHipJoint
	{
		OFFSET 0.000000 0.000000 0.000000
		CHANNELS 3 Zrotation Yrotation Xrotation
		JOINT LeftUpLeg
		{
			OFFSET 1.800000 -1.400000 0.085000
			CHANNELS 3 Zrotation Yrotation Xrotation
			JOINT LeftLeg
			{
				OFFSET 2.215000 -6.000000 0.000000
				CHANNELS 3 Zrotation Yrotation Xrotation
				JOINT LeftFoot
				{
					OFFSET 2.500000 -6.900000 0.000000
					CHANNELS 3 Zrotation Yrotation Xrotation
					JOINT LeftToeBase
					{
						OFFSET 0.200000 -0.500000 1.950000
						CHANNELS 3 Zrotation Yrotation Xrotation
						End Site
						{
							OFFSET 0.000000 0.000000 0.000000
						}
					}
				}
			}
		}
	}
	JOINT RHipJoint
	{
		OFFSET 0.000000 0.000000 0.000000
		CHANNELS 3 Zrotation Yrotation Xrotation
		JOINT RightUpLeg
		{
			OFFSET -1.800000 -1.400000 0.085000
			CHANNELS 3 Zrotation Yrotation Xrotation
			JOINT RightLeg
			{
				OFFSET -2.215000 -6.000000 0.000000
				CHANNELS 3 Zrotation Yrotation Xrotation
				JOINT RightFoot
				{
					OFFSET -2.500000 -6.900000 0.000000
					CHANNELS 3 Zrotation Yrotation Xrotation
					JOINT RightToeBase
					{
						OFFSET -0.200000 -0.500000 1.950000
						CHANNELS 3 Zrotation Yrotation Xrotation
						End Site
						{
							OFFSET 0.000000 0.000000 0.000000
						}
					}
				}
			}
		}
	}
	JOINT LowerBack
	{
		OFFSET 0.000000 0.000000 0.000000
		CHANNELS 3 Zrotation Yrotation Xrotation
		JOINT Spine
		{
			OFFSET -0.087000 1.940000 -0.288900
			CHANNELS 3 Zrotation Yrotation Xrotation
			JOINT Spine1
			{
				OFFSET 0.000000 1.950000 0.060000
				CHANNELS 3 Zrotation Yrotation Xrotation
				JOINT Neck
				{
					OFFSET 0.000000 0.000000 0.000000
					CHANNELS 3 Zrotation Yrotation Xrotation
					JOINT Neck1
					{
						OFFSET 0.000000 1.600000 0.340000
						CHANNELS 3 Zrotation Yrotation Xrotation
						JOINT Head
						{
							OFFSET 0.000000 1.667000 -0.240000
							CHANNELS 3 Zrotation Yrotation Xrotation
							End Site
							{
								OFFSET 0.000000 0.000000 0.000000
							}
						}
					}
				}
				JOINT LeftShoulder
				{
					OFFSET 0.000000 0.000000 0.000000
					CHANNELS 3 Zrotation Yrotation Xrotation
					JOINT LeftArm
					{
						OFFSET 2.700000 1.550000 -0.730000
						CHANNELS 3 Zrotation Yrotation Xrotation
						JOINT LeftForeArm
						{
							OFFSET 5.450000 0.000000 0.000000
							CHANNELS 3 Zrotation Yrotation Xrotation
							JOINT LeftHand
							{
								OFFSET 3.450000 0.000000 0.000000
								CHANNELS 3 Zrotation Yrotation Xrotation
								JOINT LeftHandIndex1
								{
									OFFSET 0.750000 0.000000 0.000000
									CHANNELS 3 Zrotation Yrotation Xrotation
									End Site
									{
										OFFSET 0.000000 0.000000 0.000000
									}
								}
							}
						}
					}
				}
				JOINT RightShoulder
				{
					OFFSET 0.000000 0.000000 0.000000
					CHANNELS 3 Zrotation Yrotation Xrotation
					JOINT RightArm
					{
						OFFSET -2.700000 1.550000 -0.730000
						CHANNELS 3 Zrotation Yrotation Xrotation
						JOINT RightForeArm
						{
							OFFSET -5.450000 0.000000 0.000000
							CHANNELS 3 Zrotation Yrotation Xrotation
							JOINT RightHand
							{
								OFFSET -3.450000 0.000000 0.000000
								CHANNELS 3 Zrotation Yrotation Xrotation
								JOINT RightHandIndex1
								{
									OFFSET -0.750000 0.000000 0.000000
									CHANNELS 3 Zrotation Yrotation Xrotation
									End Site
									{
										OFFSET 0.000000 0.000000 0.000000
									}
								}
							}
						}
					}
				}
			}
		}
	}
}
MOTION
Frames: 8
Frame Time: 0.016667
0.480110 17.692310 -1.557160 -2.632451 -2.904365 2.285697 -15.102531 13.399950 2.713743 6.557679 -2.134069 -19.083701 -4.176031 6.208365 19.791680 -0.129833 4.049813 3.149354 -0.065300 -0.110420 -0.106910 18.253194 -11.221758 2.558134 -7.916764 0.906380 -15.369949 4.423211 -3.954450 11.380235 0.179771 -3.070519 3.316589 0.038420 0.356520 0.070880 -3.597297 -1.279364 -6.775025 5.204247 1.810870 4.907445 1.324128 1.780477 6.694003 -0.160488 -3.296215 -7.666325 -7.424791 1.946228 31.309381 -1.766260 0.975770 2.694090 -17.416785 -4.656116 3.087825 -52.024526 -8.168068 -2.167982 -29.798303 -31.425392 6.228402 -3.943204 3.301770 -0.119900 0.271960 -0.237280 0.071920 18.095712 8.180557 4.062088 49.826519 6.294855 -4.329255 17.425924 22.737893 1.299148 2.511113 -1.479662 -0.135720 0.096870 0.096990 0.042410 
0.476330 17.690230 -1.557860 -2.658445 -3.095503 2.361826 -15.106121 13.388954 2.708778 6.632280 -2.127706 -19.142463 -4.235756 6.238419 19.795260 -0.124436 4.068661 3.149693 -0.070990 -0.116780 -0.115350 18.253857 -11.217031 2.554818 -7.867692 0.938151 -15.488196 4.420190 -3.945309 11.431872 0.189357 -3.076637 3.317767 0.038140 0.372600 0.074650 -3.590336 -1.263877 -6.754617 5.056154 1.878356 4.771094 1.542965 1.810588 6.615060 -0.247489 -3.248848 -7.500612 -7.273881 1.890986 31.016641 -1.799760 0.941320 3.015050 -17.506228 -4.364628 2.980696 -52.222826 -8.100601 -2.116800 -29.575909 -30.674973 5.995002 -3.961270 3.302196 -0.134900 0.286170 -0.249910 0.076590 18.365181 7.892224 3.873809 49.741453 6.349866 -4.206795 17.168423 22.181344 1.193405 2.514675 -1.485235 -0.137030 0.096260 0.098640 0.047820 
0.474090 17.693140 -1.556400 -2.730349 -3.274154 2.435543 -15.108910 13.386582 2.698484 6.743409 -2.089157 -19.069247 -4.301360 6.231740 19.545604 -0.117787 4.065953 3.161925 -0.083730 -0.129100 -0.134530 18.255516 -11.208009 2.551481 -7.745304 0.987347 -15.684483 4.382236 -3.927612 11.548864 0.203583 -3.076464 3.323843 0.034170 0.396690 0.076220 -3.586164 -1.266407 -6.729312 4.986714 1.894179 4.583599 1.832300 1.782101 6.454463 -0.383142 -3.302512 -7.324103 -7.307148 1.986976 30.693963 -1.681110 0.910020 3.503580 -17.629924 -4.013187 2.861780 -52.852991 -7.954657 -2.100193 -28.590848 -29.147007 5.370389 -3.984087 3.292498 -0.152960 0.302560 -0.267510 0.083810 18.764061 7.601809 3.675939 49.728296 6.290783 -4.119481 16.644427 21.231304 1.003493 2.522565 -1.486213 -0.140470 0.097910 0.103780 0.057480 
0.475950 17.699300 -1.550250 -2.745669 -3.133055 2.555253 -15.116796 13.390564 2.686079 6.642346 -2.060719 -18.925977 -4.194135 6.111892 19.029609 -0.113710 4.011286 3.197021 -0.113710 -0.161220 -0.165400 18.252047 -11.198324 2.545195 -7.699034 1.045018 -16.011739 4.402389 -3.944304 11.794545 0.225838 -3.081581 3.329677 0.017300 0.427620 0.078190 -3.572365 -1.281561 -6.695997 4.797065 1.860352 4.280943 2.207155 1.681954 6.323191 -0.502746 -3.281391 -7.256966 -7.180379 2.074377 30.269370 -1.619550 0.966340 4.288340 -17.300300 -3.633096 2.867999 -54.234647 -7.592300 -2.294116 -27.296120 -27.589797 4.641936 -4.012007 3.279951 -0.173980 0.324550 -0.291720 0.086750 18.702602 7.214304 3.521863 50.343351 5.995001 -4.241502 15.952302 20.303941 0.778435 2.532320 -1.484214 -0.147020 0.095920 0.117540 0.067720 
0.476720 17.712710 -1.541260 -2.672747 -2.739045 2.631771 -15.124871 13.402853 2.684312 6.459280 -2.026604 -18.649086 -4.194530 5.986981 18.303504 -0.106349 3.943316 3.236522 -0.149280 -0.200440 -0.198190 18.246757 -11.205327 2.517029 -7.633073 1.101739 -16.464933 4.123318 -3.964079 12.538601 0.249912 -3.084467 3.334108 -0.006480 0.454890 0.080010 -3.557939 -1.298321 -6.656023 4.567904 1.769129 3.958937 2.344548 1.548489 6.164975 -0.540197 -3.171722 -7.201903 -6.910701 2.241110 29.966764 -1.526510 1.166230 5.181110 -16.768416 -3.102236 2.845210 -55.786939 -7.101497 -2.593080 -25.722086 -25.726082 3.836109 -4.039556 3.263762 -0.192330 0.343950 -0.314160 0.086620 18.268964 6.571722 3.357487 51.865743 5.462511 -4.630646 15.172171 19.609096 0.548492 2.543731 -1.480482 -0.152870 0.089420 0.133580 0.076170 
0.478560 17.733830 -1.527410 -2.550006 -2.185440 2.640933 -15.133166 13.417845 2.677909 6.266357 -1.976186 -18.223644 -4.187230 5.833447 17.408689 -0.099676 3.864213 3.281076 -0.184020 -0.240830 -0.227370 18.240992 -11.205074 2.490139 -7.763018 1.105482 -16.666424 4.076503 -4.033917 13.057805 0.264635 -3.109539 3.331640 -0.032700 0.478300 0.081000 -3.545606 -1.334398 -6.617631 4.389335 1.529982 3.634760 2.241153 1.290892 5.924980 -0.506568 -3.054439 -7.070295 -6.657113 2.507229 29.838067 -1.401830 1.447440 6.027450 -16.303438 -2.221410 2.727464 -57.218186 -6.225885 -3.076352 -24.096200 -23.626869 3.036819 -4.064799 3.237846 -0.203270 0.358710 -0.331720 0.086030 17.746052 5.524465 3.094916 53.741830 4.702129 -5.258824 14.738629 19.285099 0.392603 2.554056 -1.473496 -0.159590 0.084060 0.148510 0.082360 
0.484260 17.757020 -1.513490 -2.465590 -1.708747 2.669655 -15.136285 13.422224 2.669859 6.090094 -1.915668 -17.728230 -4.196914 5.662736 16.371519 -0.098178 3.775753 3.323810 -0.210280 -0.273470 -0.242580 18.241102 -11.199335 2.472550 -7.949478 1.109865 -16.833977 4.285159 -4.152340 13.464625 0.271286 -3.141813 3.320662 -0.055040 0.488080 0.082110 -3.549054 -1.355578 -6.584770 4.400716 1.259972 3.374838 1.898056 1.028897 5.557625 -0.391760 -2.943126 -6.820103 -6.393219 2.773891 29.652710 -1.384760 1.816840 6.547400 -16.065243 -0.973923 2.458222 -58.336142 -5.028511 -3.727263 -22.418788 -21.509096 2.300678 -4.087379 3.204180 -0.206550 0.365610 -0.340600 0.080180 17.260638 4.093276 2.728564 55.796437 3.721306 -6.103114 14.306831 19.195481 0.248228 2.563944 -1.461862 -0.164190 0.076230 0.159790 0.082430 
0.490790 17.781170 -1.496820 -2.433682 -1.059010 2.656561 -15.136268 13.422411 2.662837 6.029720 -1.813285 -16.991481 -4.330789 5.478621 14.957426 -0.099534 3.687540 3.366706 -0.239200 -0.310650 -0.255650 18.244245 -11.184036 2.461331 -8.171975 1.087585 -16.834531 4.661140 -4.296697 13.630007 0.271943 -3.177079 3.310177 -0.080660 0.492960 0.081200 -3.564515 -1.384608 -6.567176 4.637800 0.871995 3.169642 1.338877 0.667275 5.060081 -0.214198 -2.865801 -6.531943 -6.224000 3.054069 29.643860 -1.455660 2.229340 6.966970 -16.082610 0.421391 2.125789 -58.934517 -3.472500 -4.541837 -20.612686 -19.445513 1.627000 -4.108931 3.155090 -0.199720 0.367870 -0.344400 0.070750 16.887248 2.485001 2.346670 57.874471 2.484777 -7.145628 13.718843 19.168211 0.095366 2.572489 -1.434706 -0.172100 0.071650 0.173840 0.078200 
